<svg xmlns="http://www.w3.org/2000/svg" xmlns:xlink="http://www.w3.org/1999/xlink" version="1.1" id="Layer_1" x="0px" y="0px" viewBox="0 0 512 512" style="enable-background:new 0 0 512 512;" xml:space="preserve">
<g>
	<path d="M385.6,180.1l-8.9,0.4C355.9,120.5,292.9,79,227.6,79c-83.7,0-158,68-158,151.7v3.2C44.2,245.1,0,284.8,0,331.9   C0,387.6,51.7,433,107.5,433h278.1c69.7,0,126.4-56.7,126.4-126.4S455.3,180.1,385.6,180.1z M385.6,382.4H271.8v-95.9l54.3,54.3   c2.5,2.5,5.7,3.7,9,3.7c3.2,0,6.5-1.2,9-3.7c4.9-4.9,4.9-13,0-17.9L268.2,247l-4.1-2.7c-3.1-1.3-6.6-1.3-9.7,0l-4.1,2.7l-75.9,75.9   c-4.9,4.9-4.9,13,0,17.9c2.5,2.5,5.7,3.7,9,3.7c3.2,0,6.5-1.2,9-3.7l54.2-54.3v95.9H107.5c-27.9,0-50.6-22.7-50.6-50.6   s22.7-50.6,48.2-50.7l36,0.4l-6.3-30.4c-1.4-6.7-2.1-13.6-2.1-20.5c0-55.8,45.4-101.1,101.1-101.1c49.3,0,91.1,35.4,99.4,84.3   l4.7,27.9l27.1-7.7c7.9-2.2,14.4-3.3,20.5-3.3c41.8,0,75.9,34,75.9,75.9S427.4,382.4,385.6,382.4z" fill="#ffffff"/>
</g>
</svg>